HIERARCHY
ROOT Hips
{
    OFFSET 0.0 0.0 0.0
    CHANNELS 6 Xposition Yposition Zposition Zrotation Xrotation Yrotation
    JOINT LeftHipJoint
    {
        OFFSET 0.1 0.0 0.0
        CHANNELS 3 Zrotation Xrotation Yrotation
        JOINT LeftUpLeg
        {
            OFFSET 117.53276628924935 0.0 0.0
            CHANNELS 3 Zrotation Xrotation Yrotation
            JOINT LeftLeg
            {
                OFFSET 0.0 0.0 -418.1092755310933
                CHANNELS 3 Zrotation Xrotation Yrotation
                JOINT LeftFoot
                {
                    OFFSET 0.0 0.0 -397.6069687483762
                    CHANNELS 3 Zrotation Xrotation Yrotation
                    End Site
                    {
                        OFFSET 0.0 -0.1 0.0
                    }
                }
            }
        }
    }
    JOINT LowerBack
    {
        OFFSET 0.0 0.0 0.1
        CHANNELS 3 Zrotation Xrotation Yrotation
        JOINT Spine
        {
            OFFSET 0.0 0.0 217.83346379726095
            CHANNELS 3 Zrotation Xrotation Yrotation
            JOINT Spine1
            {
                OFFSET 0.0 0.0 247.07234258276415
                CHANNELS 3 Zrotation Xrotation Yrotation
                JOINT LeftShoulder
                {
                    OFFSET 0.1 0.0 0.0
                    CHANNELS 3 Zrotation Xrotation Yrotation
                    JOINT LeftArm
                    {
                        OFFSET 138.46795213727003 0.0 0.0
                        CHANNELS 3 Zrotation Xrotation Yrotation
                        JOINT LeftForeArm
                        {
                            OFFSET 259.2794904344948 0.0 0.0
                            CHANNELS 3 Zrotation Xrotation Yrotation
                            JOINT LeftHand
                            {
                                OFFSET 244.42824959512114 0.0 0.0
                                CHANNELS 3 Zrotation Xrotation Yrotation
                                End Site
                                {
                                    OFFSET 0.1 0.0 0.0
                                }
                            }
                        }
                    }
                }
                JOINT Neck
                {
                    OFFSET 0.0 0.0 0.1
                    CHANNELS 3 Zrotation Xrotation Yrotation
                    JOINT Neck1
                    {
                        OFFSET 0.0 0.0 104.9430687436857
                        CHANNELS 3 Zrotation Xrotation Yrotation
                        End Site
                        {
                            OFFSET 0.0 0.0 114.28344094217056
                        }
                    }
                }
                JOINT RightShoulder
                {
                    OFFSET -0.1 0.0 0.0
                    CHANNELS 3 Zrotation Xrotation Yrotation
                    JOINT RightArm
                    {
                        OFFSET -138.46795213727003 0.0 0.0
                        CHANNELS 3 Zrotation Xrotation Yrotation
                        JOINT RightForeArm
                        {
                            OFFSET -259.2794904344948 0.0 0.0
                            CHANNELS 3 Zrotation Xrotation Yrotation
                            JOINT RightHand
                            {
                                OFFSET -244.42824959512114 0.0 0.0
                                CHANNELS 3 Zrotation Xrotation Yrotation
                                End Site
                                {
                                    OFFSET -0.1 0.0 0.0
                                }
                            }
                        }
                    }
                }
            }
        }
    }
    JOINT RightHipJoint
    {
        OFFSET -0.1 0.0 0.0
        CHANNELS 3 Zrotation Xrotation Yrotation
        JOINT RightUpLeg
        {
            OFFSET -117.53276628924935 0.0 0.0
            CHANNELS 3 Zrotation Xrotation Yrotation
            JOINT RightLeg
            {
                OFFSET 0.0 0.0 -418.1092755310933
                CHANNELS 3 Zrotation Xrotation Yrotation
                JOINT RightFoot
                {
                    OFFSET 0.0 0.0 -397.6069687483762
                    CHANNELS 3 Zrotation Xrotation Yrotation
                    End Site
                    {
                        OFFSET 0.0 -0.1 0.0
                    }
                }
            }
        }
    }
}
MOTION
Frames: 4
Frame Time: 0.03333333333333333
0.0 0.0 817.8761897689607 21.30491572057384 -2.8419303103549214 4.019896025263417 0.0 0.0 1.987846675914698e-16 -0.0506606759467132 -6.190766148616446 -1.0440740493857152 -0.22767273975360341 21.229653836890094 -0.2764274528713063 0.0 0.0 0.0 0.0 0.0 1.987846675914698e-16 -0.0031586670545730097 -0.39565426551582045 -0.8731469487046287 1.1890436618167834 1.4877108092581137e-15 -3.136306363853193e-16 0.0 0.0 -9.93923337957349e-17 -8.960895915386144 -28.762674877545702 50.08393307191821 -141.0287496575201 1.7530231888856001e-15 -1.4115433799030734e-14 0.0 0.0 0.0 0.0 0.0 -9.93923337957349e-17 0.4791511316287403 5.51502268576202 -5.015381206309961 0.0 0.0 -9.93923337957349e-17 8.040555638010725 -32.21767315961117 -46.959529678188574 138.40322259420307 5.9465918855298305e-15 2.2587069916367528e-15 0.0 0.0 0.0 0.0 0.0 1.987846675914698e-16 -0.011796949700362085 -1.6286968192548423 -1.4607382824171977 -0.3507827612306051 19.308295478046094 -1.471235800584595 0.0 0.0 3.975693351829396e-16
0.0 0.0 817.8761897689607 22.237667411083162 -2.1062445406752737 4.067516552850766 0.0 0.0 -9.93923337957349e-17 -0.04832967253395307 -7.3758059402850975 -1.0205709664314617 -0.25827139032094126 21.513804823902916 -0.12851710692272397 0.0 0.0 -3.975693351829396e-16 0.0 0.0 -9.93923337957349e-17 -0.0013785427646285165 -0.21667887631131955 -0.4119891652519299 1.273508571592999 2.937403083288769e-16 -4.008584933576011e-16 0.0 0.0 1.987846675914698e-16 -10.253958086462983 -30.352748581272618 49.299464131211565 -139.67471704933254 1.4135161926678355e-14 1.58611441648215e-15 0.0 0.0 -6.3611093629270335e-15 0.0 0.0 1.987846675914698e-16 0.41646477259061254 4.422737140737058 -4.753637754876275 0.0 0.0 1.987846675914698e-16 8.697142117129076 -33.42734366335572 -46.42385657635717 138.1736929626376 -1.1884111430590138e-14 -4.541227236528559e-15 0.0 0.0 0.0 0.0 0.0 -9.93923337957349e-17 -0.012464085010949736 -2.168491407009244 -1.63703655061291 -0.4473011996918348 19.39773697804128 -1.4836514203137665 0.0 0.0 0.0
0.0 0.0 817.8761897689607 21.841959672341392 -2.746056656431255 4.094633775032882 0.0 0.0 -1.987846675914698e-16 -0.045841058720023316 -6.761473365662519 -0.9299779393332444 -0.22898945413159927 22.4988984961992 -0.31292793157732024 0.0 0.0 3.975693351829396e-16 0.0 0.0 -1.987846675914698e-16 -0.001489493725628461 -0.2265947617456175 -0.6257936190973714 1.413630196699109 -1.0920063830894566e-15 1.1287184507282154e-16 0.0 0.0 0.0 -10.007373217695545 -29.458224228642894 49.37901878410627 -139.2175121600073 0.0 -0.0 -3.1805546814635168e-15 -3.1805546814635168e-15 -8.827812596100317e-32 0.0 0.0 0.0 0.002017740366057215 5.275630074763502 -4.675637594398929 0.0 0.0 0.0 9.279743848943344 -33.40733332232957 -46.1954265360369 137.7390960445171 -6.606969381109965e-15 -9.37310090952876e-15 7.951386703658792e-16 0.0 0.0 0.0 0.0 -1.987846675914698e-16 -0.009230964411987614 -1.613577686234992 -1.6153680178368737 -0.44555767812955316 19.813097690418765 -1.6265820322160307 0.0 0.0 -3.975693351829396e-16
0.0 0.0 817.8761897689607 21.087960682101986 -1.8058320656484648 4.12001687036345 0.0 0.0 9.93923337957349e-17 -0.08083903384113098 -7.514088940037048 -0.9507230470830219 -0.14068902009346446 22.28640076767653 -0.11506503809604972 0.0 0.0 0.0 0.0 0.0 9.93923337957349e-17 -0.005829797546539317 -0.5526957122985139 -0.6862065415558436 1.6365784885169246 1.9592548016991185e-16 -2.0160330939518757e-16 0.0 0.0 -1.9878466759146977e-16 -9.871859279879676 -30.132401705272713 49.3702261970719 -139.39930043301766 0.0 -0.0 3.1805546814635168e-15 0.0 0.0 0.0 0.0 -1.9878466759146977e-16 0.04387151065159762 4.6192896803486905 -4.605614375749349 0.0 0.0 -1.9878466759146977e-16 9.114768660217916 -34.30360329598164 -45.87242602620635 137.374365469682 6.510298235870614e-16 7.082076007619353e-15 0.0 0.0 0.0 0.0 0.0 9.93923337957349e-17 -0.03185403708723697 -3.1387305585276235 -1.5500660650517992 -0.35277925843018504 20.513617973940356 -1.6875691380476943 0.0 0.0 0.0
